<?xml version="1.0" encoding="utf-8"?>
<!-- Generator: Adobe Illustrator 21.1.0, SVG Export Plug-In . SVG Version: 6.00 Build 0)  -->
<svg version="1.1" id="Layer_1" xmlns="http://www.w3.org/2000/svg" xmlns:xlink="http://www.w3.org/1999/xlink" x="0px" y="0px"
	 viewBox="0 0 257.8 270.9" style="enable-background:new 0 0 257.8 270.9;" xml:space="preserve">
<style type="text/css">
	.st0{fill:none;stroke:#000000;stroke-miterlimit:10;}
</style>
<g>
	<path class="st0" d="M0.5,215.3c-2.3-1.2,3.4-7.7,14.4-14.7c47.8-30.5,52.8-35.4,83-59.3c10.3-8.1,25-51.2,54.2-76.2
		c10.7-9.2,10-28.2,3.6-34.3c-5.7-5.5-22.4-10.1-22.2-12.3c0.2-1.8,10.3-1.5,20.3-3c0,0,0.3-15.7,41.9-15.7
		c25.9,0,46.1,38.3,47.8,43.2c8,22.6,10.2,37.6,10.6,44.4c3.7,64.6-28.7,88-59.7,102c-0.2,0.1-17,6.4-17,6.4l0,0c0,0-2.2,4.6,0,6.3
		c11.8,9.2,22.2,13.1,44.2,25.4c7.9,4.4,12.5,5.7,16,6.3c5.6,0.9,10-7.8,14.4-7c1.3,0.2,0,0,1.3,1.2c3.9,3.7,5.1,9.1,4.2,9.6
		c-1,0.6-0.7-6.3-5.4-6.6c-2.9-0.2-9,2.7-9.8,5.4c-1.1,3.6,3.4,6.1,5.9,11.9c4.4,10.2-3.3,22.4-4.8,22.4c-3.4,0,3.6-10.5-1.2-20.4
		c-3.4-7-5.1-7.5-6.5-8.5c-5.1-3.6-13.2-8.8-14.5-7c-1.7,2.3,1.5,12.8-4,15c-2.1,0.8,1-13-7.2-21c-15.1-14.8-25.4-17-39.2-22.9
		c-6-2.6-0.6-4.9-4.7-8c-8.2-6.2-30.2-7.3-34.5-5c-6.6,3.5,5.3,16.9,11.2,27c3.6,6.2,5.7,7.8,8,8.9c11,5.3,17.7-2.2,21.4,0.4
		c5.9,4.2,7.9,12.4,7.3,12.8c-0.6,0.3-3.3-8.5-9.6-9.6c-4.1-0.7-9.5,1.1-10.4,4.6c-2,7.5,17.5,24.9,15.5,30.9
		c-1,2.9-11.2-10.2-14.7-16.5c-5.2-9.2-10.1-12.6-12-12.3c-1.6,0.2,0.4,19.4-1.7,19.8c-1.6,0.3-2.5-21.6-7.4-33.7
		c-6.1-15.2-8.9-19.8-13.8-27.4c-2.1-3.3-6.8-0.4-9.7-5.5c-7.7-13.2-10.7-17-10.5-18.8c0.4-3.6,31.9-43.7,31.9-43.7
		c-19.1,20.2-33.8,43.7-34.1,44c-1.7,1.5-2,5.9-3.7,10.4c-2.6,6.7-2.2,11.1-4.7,15.2c-5.3,8.8-12.5,13-13.5,12.7
		c-2.9-0.8,3-30.4,3-30.4c-6.9-3.2-48.8,33.2-56.3,34.7C22.9,217.7,5.7,218,0.5,215.3z"/>
	<path class="st0" d="M188.3,20.6c0-5.7,7.6-5.7,7.6-5.7s7.6,0,7.6,5.7c0,6.4-7.6,6.4-7.6,6.4S188.3,27.1,188.3,20.6z"/>
	<path class="st0" d="M198.5,18.2c1,0,1.8,0.7,1.9,1.6c0.2,1.1-2.3,1.6-3,0.7C196.8,19.7,197.5,18.2,198.5,18.2z"/>
</g>
</svg>
